<svg width="24" height="24" viewBox="0 0 24 24" fill="none" xmlns="http://www.w3.org/2000/svg">
  <path
    d="M21.216 8.12a9.996 9.996 0 0 0-10.363-6.054A9.998 9.998 0 0 0 6.06 20.044a9.997 9.997 0 0 0 13.353-1.333 10.007 10.007 0 0 0 1.802-10.59Zm-.847 7.946-.442-1.166 1.09-.584a9.15 9.15 0 0 1-.648 1.752v-.002ZM3.054 14.331l1.079.579-.439 1.151a9.262 9.262 0 0 1-.64-1.73Zm-.295-2.33c0-.303.014-.602.042-.897l.827.915-.823.914A9.44 9.44 0 0 1 2.758 12Zm.929-4.046.445 1.178-1.094.586c.155-.609.373-1.2.649-1.764Zm17.337 1.759-1.1-.593.45-1.183c.276.568.494 1.163.65 1.776Zm-5.396 8.56-.868-.588a6.05 6.05 0 0 0 .791-.457l.077 1.045Zm-2.345.825-.586-.828c.295-.031.585-.083.87-.154l-.284.982Zm-2.496.029-.292-1.01c.305.076.616.129.929.158l-.637.852Zm-.564.534-1.303.8-.454-1.396 1.323-.896.433 1.492h.001Zm-1.793-1.405.076-1.026c.249.169.508.319.778.448l-.854.578Zm0-12.496.835.566c-.262.13-.515.279-.76.444l-.075-1.01Zm2.355-.876.625.84c-.307.029-.611.08-.91.155l.285-.995Zm2.499.029.275.966a6.194 6.194 0 0 0-.85-.149l.575-.817Zm.55-.583 1.302-.808.456 1.411-1.325.905-.434-1.508Zm1.79 1.414-.075 1.023a6.06 6.06 0 0 0-.77-.446l.846-.577ZM12.03 17.617A5.624 5.624 0 0 1 6.413 12c0-.81.176-1.607.512-2.343A5.616 5.616 0 0 1 8.37 7.745a.376.376 0 0 0 .113-.094c.47-.384 1-.69 1.567-.905a.319.319 0 0 0 .113-.041 5.597 5.597 0 0 1 5.444.971c.011.014.026.024.039.034a5.59 5.59 0 0 1 1.473 1.925A5.59 5.59 0 0 1 17.645 12a5.624 5.624 0 0 1-5.616 5.617Zm-6.282-5.113-1.007-.482 1-.481c-.022.321-.022.644.004.963h.003Zm12.573-.972 1.002.48-1.005.482c.013-.162.018-.326.02-.494a7.355 7.355 0 0 0-.02-.47l.003.002Zm-.522-2.085.992.088-.699.722a6.19 6.19 0 0 0-.293-.81ZM16.553 7.61l1.01-.253-.413.962a6.422 6.422 0 0 0-.597-.71Zm-4.486-2.16-.958-1.288.893-1.181.965 1.186-.9 1.283Zm-2.275.404L8.467 4.95l.454-1.408 1.303.806-.432 1.507ZM6.907 8.326l-.412-.957 1.004.251a6.304 6.304 0 0 0-.592.702v.004Zm-.943 1.94-.694-.725.987-.087a6.206 6.206 0 0 0-.292.811v.004l-.001-.002ZM4.488 9.73l1.088 1.129-1.446.691-.99-1.1 1.348-.72Zm-.358 2.765 1.445.693-1.087 1.129-1.352-.723.994-1.1Zm1.846 1.272c.08.282.183.556.302.823l-1.01-.089.708-.734Zm1.554 2.652-1.036.26.423-.984c.186.256.39.498.613.723Zm4.537 2.155.9 1.269L12 21.02l-.892-1.175.958-1.274.001.002Zm2.199-.388 1.325.896-.452 1.4-1.303-.802.43-1.494Zm2.88-2.495.42.979-1.03-.258c.222-.226.425-.467.61-.72Zm.942-1.93.704.731-1.007.09c.12-.267.22-.542.303-.823v.003Zm1.485.547-1.085-1.129 1.444-.695.993 1.1-1.352.724Zm.357-2.768-1.446-.695 1.086-1.127 1.35.723-.99 1.099Zm-.652-2.657-1.56-.136.633-1.474 1.47.18-.543 1.43ZM17.75 6.599l-1.52.38.118-1.6 1.444-.31-.042 1.53ZM13.5 3.73l-.798-.98c.629.044 1.25.152 1.856.324l-1.058.656Zm-2.94.015-1.072-.665a9.2 9.2 0 0 1 1.819-.328l-.746.993ZM7.83 6.988 6.312 6.61l-.046-1.531 1.448.312.116 1.598Zm-2.12.294.634 1.472-1.56.139-.547-1.433 1.472-.178Zm-.933 7.867 1.56.139-.63 1.471-1.471-.178.541-1.432Zm1.532 2.283 1.52-.38-.118 1.6-1.447.312.045-1.532Zm4.252 2.831.746.984a9.22 9.22 0 0 1-1.815-.325l1.069-.659Zm2.939.015 1.053.65a9.19 9.19 0 0 1-1.851.322l.798-.972Zm2.73-3.235 1.52.38.044 1.532-1.448-.312-.116-1.6Zm2.125-.294-.636-1.472 1.56-.138.545 1.432-1.47.178Zm2.077-4.74.834-.924c.06.615.058 1.232-.002 1.846l-.832-.922Zm-.763-5.272-1.23-.148.037-1.257a9.2 9.2 0 0 1 1.193 1.405Zm-2.26-2.293-1.169.253-.367-1.141c.54.246 1.054.543 1.537.888Zm-9.218-.886L7.82 4.707l-1.175-.253a9.289 9.289 0 0 1 1.546-.896Zm-2.608 1.78.038 1.258-1.228.15a9.27 9.27 0 0 1 1.19-1.407Zm-1.16 11.959 1.196.145-.038 1.216a9.263 9.263 0 0 1-1.157-1.36v-.001ZM6.69 19.58l1.139-.246.36 1.11a9.204 9.204 0 0 1-1.5-.864Zm9.183.866.365-1.12 1.146.247a9.33 9.33 0 0 1-1.51.871v.002h-.001Zm2.606-1.78-.036-1.23 1.21-.149c-.345.497-.739.959-1.174 1.38Z"
    fill="url(#a)" />
  <defs>
    <linearGradient id="a" x1="3.95" y1="3.3" x2="24.85" y2="9.824" gradientUnits="userSpaceOnUse">
      <stop stop-color="#96C0F3" />
      <stop offset=".339" stop-color="#74A3EA" />
      <stop offset=".708" stop-color="#599FDF" />
      <stop offset="1" stop-color="#3583D6" />
    </linearGradient>
  </defs>
</svg>