<svg height="700pt" preserveAspectRatio="xMidYMid meet" viewBox="0 0 700 700" width="700pt" xmlns="http://www.w3.org/2000/svg"><g transform="matrix(.1 0 0 -.1 0 700)"><path d="m3215 6994c-527-52-991-193-1418-433-575-321-1037-783-1359-1358-213-382-345-781-415-1258-14-95-18-187-18-445 0-348 7-419 61-695 198-995 833-1864 1731-2366 381-214 782-346 1258-416 152-22 706-25 855-5 691 95 1270 339 1784 752 639 514 1087 1249 1240 2038 55 283 61 346 61 692s-6 409-61 692c-148 762-575 1482-1179 1989-517 433-1119 699-1800 795-114 16-633 28-740 18zm1772-2071c251-85 384-354 294-593-25-67-1356-2568-1408-2647-43-65-129-132-211-165-82-32-242-32-324 0-82 33-168 100-211 165-52 78-1383 2580-1408 2647-87 229 39 500 271 586 25 9 83 20 130 24s697 7 1445 6c1360-1 1360-1 1422-23z"/><path d="m2103 4555c-11-8-26-28-31-44-9-25-6-39 17-88 38-80 1201-2266 1212-2277 5-6 9 503 9 1207v1217h-593c-508 0-596-2-614-15z"/><path d="m3690 3353c0-704 4-1213 9-1207 11 11 1174 2197 1212 2277 23 49 26 63 17 88-21 61 4 59-645 59h-593z"/></g></svg>