<svg width="20" height="20" viewBox="0 0 20 20" fill="none" xmlns="http://www.w3.org/2000/svg">
    <path fill-rule="evenodd" clip-rule="evenodd" d="M5.86282 6.98047C4.83571 6.98047 4.45636 7.06904 4.07901 7.26852C3.73947 7.44801 3.473 7.71141 3.29141 8.04703C3.08961 8.42002 3 8.79499 3 9.81025V14.1699C3 15.1851 3.08961 15.5601 3.29141 15.9331C3.473 16.2687 3.73947 16.5321 4.07901 16.7116C4.45636 16.9111 4.83571 16.9997 5.86282 16.9997H8.96543C9.99254 16.9997 10.3719 16.9111 10.7492 16.7116C11.0888 16.5321 11.3552 16.2687 11.5368 15.9331C11.7386 15.5601 11.8282 15.1851 11.8282 14.1699V9.81025C11.8282 8.79499 11.7386 8.42002 11.5368 8.04703C11.3552 7.71141 11.0888 7.44801 10.7492 7.26852C10.3719 7.06904 9.99254 6.98047 8.96543 6.98047H5.86282Z" stroke="#45454B" stroke-width="1.5"/>
    <path d="M8.17175 6.98082V5.82979C8.17175 4.81453 8.26136 4.43955 8.46317 4.06656C8.64475 3.73094 8.91123 3.46754 9.25077 3.28805C9.62811 3.08857 10.0075 3 11.0346 3H14.1372C15.1643 3 15.5436 3.08857 15.921 3.28805C16.2605 3.46754 16.527 3.73094 16.7086 4.06656C16.9104 4.43955 17 4.81453 17 5.82979V10.1894C17 11.2047 16.9104 11.5796 16.7086 11.9526C16.527 12.2882 16.2605 12.5516 15.921 12.7311C15.5436 12.9306 15.1643 13.0192 14.1372 13.0192H12.2842" stroke="#45454B" stroke-width="1.5"/>
</svg>
