<svg width="20" height="20" viewBox="0 0 20 20" fill="none" xmlns="http://www.w3.org/2000/svg">
    <path fill-rule="evenodd" clip-rule="evenodd" d="M5.86282 6.98096C4.83571 6.98096 4.45636 7.06953 4.07901 7.26901C3.73947 7.4485 3.473 7.7119 3.29141 8.04752C3.08961 8.42051 3 8.79548 3 9.81074V14.1704C3 15.1856 3.08961 15.5606 3.29141 15.9336C3.473 16.2692 3.73947 16.5326 4.07901 16.7121C4.45636 16.9116 4.83571 17.0001 5.86282 17.0001H8.96543C9.99254 17.0001 10.3719 16.9116 10.7492 16.7121C11.0888 16.5326 11.3552 16.2692 11.5368 15.9336C11.7386 15.5606 11.8282 15.1856 11.8282 14.1704V9.81074C11.8282 8.79548 11.7386 8.42051 11.5368 8.04752C11.3552 7.7119 11.0888 7.4485 10.7492 7.26901C10.3719 7.06953 9.99254 6.98096 8.96543 6.98096H5.86282Z" stroke="#C0D1D9" stroke-width="1.5"/>
    <path d="M8.17175 6.98082V5.82979C8.17175 4.81453 8.26136 4.43955 8.46317 4.06656C8.64475 3.73094 8.91123 3.46754 9.25077 3.28805C9.62811 3.08857 10.0075 3 11.0346 3H14.1372C15.1643 3 15.5436 3.08857 15.921 3.28805C16.2605 3.46754 16.527 3.73094 16.7086 4.06656C16.9104 4.43955 17 4.81453 17 5.82979V10.1894C17 11.2047 16.9104 11.5796 16.7086 11.9526C16.527 12.2882 16.2605 12.5516 15.921 12.7311C15.5436 12.9306 15.1643 13.0192 14.1372 13.0192H12.2842" stroke="#C0D1D9" stroke-width="1.5"/>
</svg>
