<svg width="55" height="16" xmlns="http://www.w3.org/2000/svg" fill="none">
 <defs>
  <clipPath id="a">
   <path id="svg_1" d="m0,0l55,0l0,16l-55,0l0,-16z" fill="#fff"/>
  </clipPath>
 </defs>
 <g>
  <title>Layer 1</title>
  <g opacity="0.8" id="svg_2" clip-path="url(#a)">
   <path id="svg_3" d="m0,16l2.3666,0l5.1612,-16l-2.3666,0l-5.1612,16z" fill="#404047"/>
   <path id="svg_4" d="m13.9033,0.9541c2.1775,0 4.2864,-0.062 6.3906,0.018c1.8785,0.0716 3.6103,0.6473 4.9532,2.0816c0.9599,1.0259 1.454,2.2692 1.6077,3.657c0.1749,1.5692 0.0603,3.1015 -0.6466,4.5395c-0.9765,1.9837 -2.648,3.0705 -4.7451,3.3416c-1.7023,0.2198 -3.4412,0.1577 -5.1648,0.2042c-0.7873,0.0215 -1.5746,0.0036 -2.3938,0.0036l0,-13.8455l-0.0012,0zm3.602,2.8317l0,8.0543c1.1656,-0.0131 2.3099,0.1171 3.4258,-0.2078c1.1597,-0.3391 1.9293,-1.0856 2.2319,-2.2847c0.24,-0.9482 0.2435,-1.9049 0.0354,-2.8555c-0.3014,-1.3818 -1.1762,-2.231 -2.5333,-2.4579c-1.0225,-0.1708 -2.0734,-0.1696 -3.1598,-0.2484zm23.9169,11.0136c-0.8488,0 -2.6126,-0.0119 -2.6126,-0.0119s-0.1123,-0.1433 -0.1986,-0.252c-1.9328,-2.4268 -3.8608,-4.8572 -5.7889,-7.2876c-0.091,-0.1135 -0.1832,-0.2257 -0.3404,-0.418l0,7.9361l-3.3455,0l0,-13.8276c0.5214,0 2.6705,-0.0131 2.6705,-0.0131s0.1253,0.1851 0.5828,0.7799c1.7507,2.274 3.5641,4.4989 5.3539,6.7418c0.0922,0.1158 0.1891,0.2269 0.3664,0.4383l0,-7.9325l3.3124,0l0,13.8466zm3.0915,-4.0783c1.5403,0.9017 3.1279,1.3651 4.842,1.3173c0.4303,-0.0119 0.8677,-0.0776 1.285,-0.1827c0.5035,-0.1278 0.8239,-0.5554 0.8322,-1.0008c0.0083,-0.4563 -0.2424,-0.8313 -0.7873,-0.9722c-1.1171,-0.2878 -2.2484,-0.5219 -3.375,-0.7763c-0.7755,-0.1755 -1.5214,-0.4335 -2.1633,-0.916c-1.856,-1.395 -1.8725,-4.456 -0.0426,-6.024c1.0935,-0.9364 2.3938,-1.3281 3.7923,-1.4225c1.8583,-0.1265 3.6303,0.166 5.2286,1.2039c0.0792,0.0514 0.1525,0.1135 0.2293,0.1696c0.0449,0.0322 0.0911,0.062 0.1383,0.0943c-0.3416,0.8898 -0.6702,1.7437 -0.974,2.5367c-0.7531,-0.2938 -1.4671,-0.6222 -2.2106,-0.8491c-0.8394,-0.2556 -1.7141,-0.2926 -2.5854,-0.1493a3.0567,3.0567 0 0 0 -0.7376,0.221c-0.4457,0.197 -0.7176,0.5362 -0.7034,1.0545c0.013,0.4897 0.2979,0.8133 0.7223,0.947c0.6466,0.202 1.3145,0.3345 1.9742,0.4921c0.779,0.1852 1.5781,0.3094 2.3359,0.5578c1.4315,0.4693 2.4458,1.3877 2.6444,2.9738c0.1962,1.5705 -0.344,2.8627 -1.6018,3.8217c-1.084,0.8265 -2.3489,1.125 -3.6717,1.1812c-1.9564,0.0836 -3.8479,-0.2066 -5.6092,-1.1322c-0.3287,-0.1732 -0.5958,-0.3034 -0.5958,-0.3034s0.13,-0.3439 0.2258,-0.6114c0.2624,-0.731 0.5272,-1.4619 0.805,-2.2334l0.0024,0.0024z" fill="#F3F3F6"/>
  </g>
 </g>
</svg>
