<svg width="44" height="18" viewBox="0 0 44 18" fill="none" xmlns="http://www.w3.org/2000/svg">
<path d="M0.394409 16.8339V0.925971H5.63731C10.208 0.925971 13.8153 4.44364 13.8153 8.87994C13.8153 13.3162 10.208 16.8339 5.63731 16.8339H0.394409ZM3.64321 13.854H5.63731C8.57243 13.854 10.5441 11.6358 10.5441 8.87994C10.5441 6.12406 8.57243 3.90591 5.63731 3.90591H3.64321V13.854Z" fill="#fff"/>
<path d="M30.1897 16.8339H27.3891L19.2334 6.46014V16.8339H15.9846V0.925971H18.7853L26.9409 11.2997V0.925971H30.1897V16.8339Z" fill="#fff"/>
<path d="M32.2733 11.9047H35.5221C35.7461 13.3386 36.9785 14.1004 38.39 14.1004C39.6895 14.1004 40.653 13.4955 40.653 12.4872C40.653 11.6358 40.048 10.9861 38.5244 10.5604L36.844 10.0674C34.3346 9.35045 32.699 7.78207 32.6766 5.36227C32.6542 2.42714 34.8275 0.657104 38.0091 0.657104C41.4372 0.657104 43.4761 3.12171 43.5881 5.4967H40.3617C40.0032 4.15237 38.9501 3.65945 38.0091 3.65945C36.8664 3.65945 35.9702 4.19718 35.9478 5.13821C35.9254 6.12406 36.6424 6.66179 37.9419 7.04268L39.8015 7.55801C42.3782 8.27499 43.9242 9.91059 43.9242 12.3752C43.9242 15.0863 41.7284 17.1028 38.39 17.1028C34.5811 17.1028 32.4077 14.5261 32.2733 11.9047Z" fill="#fff"/>
</svg>
