<svg xmlns="http://www.w3.org/2000/svg" fill="none" viewBox="0 0 55 16">
    <g clip-path="url(#a)">
        <path fill="#CAD2D6" d="M0 16h2.3666L7.5278 0H5.1612L0 16Z"/>
        <path fill="#131418" d="M13.9031.9541c2.1775 0 4.2864-.062 6.3906.018 1.8784.0716 3.6102.6473 4.9531 2.0816.9599 1.0259 1.4541 2.2692 1.6077 3.657.175 1.5692.0603 3.1015-.6466 4.5395-.9764 1.9837-2.648 3.0705-4.7451 3.3416-1.7022.2198-3.4412.1577-5.1647.2042-.7873.0215-1.5746.0036-2.3938.0036V.9541h-.0012Zm3.6019 2.8317v8.0543c1.1656-.0131 2.3099.1171 3.4259-.2078 1.1596-.3391 1.9292-1.0856 2.2318-2.2847.24-.9482.2436-1.9049.0355-2.8555-.3014-1.3818-1.1762-2.231-2.5333-2.4579-1.0226-.1708-2.0735-.1696-3.1599-.2484Zm23.9169 11.0136c-.8488 0-2.6125-.0119-2.6125-.0119s-.1123-.1433-.1986-.252c-1.9328-2.4268-3.8609-4.8572-5.7889-7.2876-.091-.1135-.1833-.2257-.3405-.418v7.9361H29.136V.9384c.5213 0 2.6704-.0131 2.6704-.0131s.1253.1851.5828.7799c1.7508 2.274 3.5642 4.4989 5.3539 6.7418.0922.1158.1892.2269.3665.4383V.9528h3.3123v13.8466Zm3.0913-4.0783c1.5403.9017 3.1279 1.3651 4.842 1.3173.4303-.0119.8677-.0776 1.285-.1827.5036-.1278.8239-.5554.8322-1.0008.0083-.4563-.2423-.8313-.7873-.9722-1.1171-.2878-2.2484-.5219-3.375-.7763-.7755-.1755-1.5214-.4335-2.1633-.916-1.856-1.395-1.8725-4.456-.0426-6.024C46.1977 1.23 47.4981.8383 48.8965.7439c1.8583-.1265 3.6304.166 5.2286 1.2039.0792.0514.1525.1135.2293.1696.045.0322.0911.062.1383.0943-.3416.8898-.6702 1.7437-.974 2.5367-.753-.2938-1.4671-.6222-2.2106-.8491-.8393-.2556-1.7141-.2926-2.5854-.1493a3.058 3.058 0 0 0-.7376.221c-.4457.197-.7176.5362-.7034 1.0545.013.4897.2979.8133.7223.947.6466.202 1.3145.3345 1.9742.4921.779.1852 1.5781.3094 2.3359.5578 1.4315.4693 2.4458 1.3877 2.6444 2.9738.1962 1.5705-.344 2.8627-1.6018 3.8217-1.084.8265-2.3489 1.125-3.6717 1.1812-1.9564.0836-3.8478-.2066-5.6092-1.1322-.3287-.1732-.5958-.3034-.5958-.3034s.13-.3439.2258-.6114c.2624-.731.5272-1.4619.805-2.2334l.0024.0024Z"/>
    </g>
    <defs>
        <clipPath id="a">
            <path fill="#fff" d="M0 0h55v16H0z"/>
        </clipPath>
    </defs>
</svg>
