<svg width="18" height="18" viewBox="0 0 18 18" fill="none" xmlns="http://www.w3.org/2000/svg">
    <path fill-rule="evenodd" clip-rule="evenodd" d="M5.32961 2.7002H12.6706C13.1503 2.70018 13.5651 2.70016 13.8951 2.73043C14.2294 2.7611 14.6111 2.83113 14.9395 3.06964C15.3831 3.39189 15.6692 3.88721 15.7266 4.4325C15.7691 4.8361 15.639 5.20173 15.4985 5.50659C15.3599 5.80755 15.1525 6.16688 14.9128 6.5824L9.70169 15.615C9.55704 15.8657 9.28956 16.0202 9.00008 16.0202C8.71061 16.0202 8.44313 15.8657 8.29847 15.615L3.08738 6.58242C2.84763 6.16689 2.6403 5.80755 2.50162 5.50659C2.36115 5.20173 2.23106 4.8361 2.27357 4.4325C2.331 3.88721 2.61708 3.39189 3.06071 3.06964C3.38905 2.83113 3.77077 2.7611 4.10503 2.73043C4.43502 2.70016 4.84988 2.70018 5.32961 2.7002ZM4.00446 4.38661C3.93974 4.43697 3.8972 4.51062 3.88592 4.59185C3.88849 4.60744 3.9021 4.67489 3.97293 4.82862C4.07668 5.05377 4.24557 5.34813 4.5091 5.80492L8.19008 12.1853V4.3202H5.36662C4.83926 4.3202 4.49989 4.32101 4.25303 4.34366C4.08447 4.35912 4.01925 4.38105 4.00446 4.38661ZM9.81008 4.3202V12.1853L13.4911 5.80492C13.7546 5.34813 13.9235 5.05377 14.0272 4.82862C14.0981 4.6749 14.1117 4.60744 14.1143 4.59185C14.103 4.51062 14.0604 4.43697 13.9957 4.38661C13.9809 4.38104 13.9157 4.35912 13.7471 4.34366C13.5003 4.32101 13.1609 4.3202 12.6335 4.3202H9.81008Z" fill="currentColor" />
</svg>