<svg width="32" height="32" viewBox="0 0 32 32" fill="none" xmlns="http://www.w3.org/2000/svg">
    <path d="M16 32C24.8366 32 32 24.8366 32 16C32 7.16344 24.8366 0 16 0C7.16344 0 0 7.16344 0 16C0 24.8366 7.16344 32 16 32Z" fill="#0088CC"/>
    <path fill-rule="evenodd" clip-rule="evenodd" d="M11.5455 10.5764H20.5194C20.8369 10.5764 21.1541 10.623 21.4857 10.7776C21.8831 10.9628 22.0939 11.2548 22.2415 11.4708C22.253 11.4876 22.2637 11.5049 22.2737 11.5226C22.4473 11.8316 22.5368 12.1653 22.5368 12.5242C22.5368 12.8652 22.4556 13.2368 22.2737 13.5606C22.272 13.5637 22.2702 13.5668 22.2684 13.5699L16.5988 23.309C16.4738 23.5238 16.2437 23.6555 15.9952 23.6547C15.7467 23.6538 15.5175 23.5204 15.394 23.3047L9.82848 13.5863C9.82688 13.5838 9.82528 13.5811 9.82368 13.5784C9.69631 13.3686 9.49934 13.044 9.46488 12.6251C9.43322 12.2399 9.51979 11.854 9.71334 11.5194C9.90688 11.1847 10.1983 10.9171 10.5487 10.7534C10.9245 10.5778 11.3053 10.5764 11.5455 10.5764ZM15.302 11.9677H11.5455C11.2987 11.9677 11.2039 11.9829 11.1377 12.0139C11.0461 12.0566 10.9692 12.1269 10.9177 12.2159C10.8663 12.3048 10.8431 12.4079 10.8515 12.5111C10.8564 12.5703 10.8805 12.6379 11.0227 12.8725C11.0257 12.8774 11.0286 12.8824 11.0315 12.8874L15.302 20.3444V11.9677ZM16.6933 11.9677V20.3813L21.0627 12.8755C21.112 12.7859 21.1455 12.6564 21.1455 12.5242C21.1455 12.417 21.1232 12.3238 21.0735 12.2278C21.0213 12.1528 20.9896 12.1131 20.963 12.0859C20.9402 12.0626 20.9227 12.0502 20.8979 12.0386C20.7945 11.9904 20.6888 11.9677 20.5194 11.9677H16.6933Z" fill="white"/>
</svg>
