<svg width="32" height="32" viewBox="0 0 32 32" fill="none" xmlns="http://www.w3.org/2000/svg">
    <path d="M7.33281 8.13354C6.67007 8.13354 6.13281 8.6708 6.13281 9.33354C6.13281 9.99629 6.67007 10.5335 7.33281 10.5335H24.6657C25.3284 10.5335 25.8657 9.99629 25.8657 9.33354C25.8657 8.6708 25.3284 8.13354 24.6657 8.13354H7.33281Z" fill="currentColor" />
    <path d="M6.13281 16.0002C6.13281 15.3375 6.67007 14.8002 7.33281 14.8002H24.6657C25.3284 14.8002 25.8657 15.3375 25.8657 16.0002C25.8657 16.663 25.3284 17.2002 24.6657 17.2002H7.33281C6.67007 17.2002 6.13281 16.663 6.13281 16.0002Z" fill="currentColor" />
    <path d="M6.13281 22.6669C6.13281 22.0041 6.67007 21.4669 7.33281 21.4669H24.6657C25.3284 21.4669 25.8657 22.0041 25.8657 22.6669C25.8657 23.3296 25.3284 23.8669 24.6657 23.8669H7.33281C6.67007 23.8669 6.13281 23.3296 6.13281 22.6669Z" fill="currentColor" />
</svg>