<svg width="49" height="49" viewBox="0 0 49 49" fill="none" xmlns="http://www.w3.org/2000/svg">
    <path fill-rule="evenodd" clip-rule="evenodd" d="M48.3333 24.6665C48.3333 37.9213 37.5881 48.6665 24.3333 48.6665C11.0784 48.6665 0.333252 37.9213 0.333252 24.6665C0.333252 11.4117 11.0784 0.666504 24.3333 0.666504C37.5881 0.666504 48.3333 11.4117 48.3333 24.6665ZM31.1121 16.5304H17.6512C17.2909 16.5304 16.7197 16.5324 16.1561 16.7958C15.6304 17.0415 15.1933 17.4428 14.903 17.9448C14.6127 18.4468 14.4828 19.0257 14.5303 19.6034C14.582 20.2318 14.8775 20.7186 15.0685 21.0335L15.0757 21.0453L23.424 35.6229C23.6092 35.9464 23.953 36.1464 24.3258 36.1478C24.6985 36.1491 25.0437 35.9514 25.2312 35.6293L33.7356 21.0206L33.7435 21.0067C34.0164 20.521 34.1382 19.9637 34.1382 19.4521C34.1382 18.9137 34.0039 18.4133 33.7435 17.9497C33.7286 17.9231 33.7125 17.8972 33.6953 17.872C33.4738 17.5481 33.1577 17.11 32.5615 16.8322C32.0642 16.6003 31.5883 16.5304 31.1121 16.5304ZM17.6512 18.6173H23.286V31.1825L16.8802 19.9968C16.8778 19.9926 16.8753 19.9884 16.8729 19.9842C16.8709 19.981 16.869 19.9777 16.8671 19.9745C16.6537 19.6227 16.6176 19.5212 16.6103 19.4324C16.5976 19.2777 16.6325 19.1231 16.7096 18.9896C16.7868 18.8561 16.9021 18.7507 17.0395 18.6866C17.1389 18.6401 17.281 18.6173 17.6512 18.6173ZM25.3729 31.2377V18.6173H31.1121C31.3662 18.6173 31.5248 18.6515 31.6798 18.7237C31.717 18.741 31.7433 18.7597 31.7775 18.7946C31.8174 18.8354 31.865 18.895 31.9433 19.0074C32.0178 19.1515 32.0512 19.2912 32.0512 19.4521C32.0512 19.6505 32.001 19.8447 31.9271 19.9791L25.3729 31.2377Z" fill="#0098EA"/>
</svg>