<svg width="20" height="20" viewBox="0 0 20 20" fill="none" xmlns="http://www.w3.org/2000/svg">
    <path fill-rule="evenodd" clip-rule="evenodd" d="M5.92179 3H14.0784C14.6114 2.99998 15.0724 2.99996 15.439 3.0336C15.8104 3.06767 16.2346 3.14549 16.5994 3.41049C17.0923 3.76854 17.4102 4.31891 17.474 4.92479C17.5212 5.37322 17.3767 5.77949 17.2206 6.11821C17.0665 6.45262 16.8362 6.85187 16.5698 7.31356L10.7797 17.3498C10.6189 17.6284 10.3217 17.8 10.0001 17.8C9.67845 17.8 9.38126 17.6284 9.22053 17.3498L3.43043 7.31358C3.16404 6.85188 2.93367 6.45262 2.77958 6.11821C2.6235 5.77949 2.47895 5.37322 2.52618 4.92479C2.59 4.31891 2.90787 3.76854 3.40079 3.41049C3.76561 3.14549 4.18974 3.06767 4.56114 3.0336C4.9278 2.99996 5.38875 2.99998 5.92179 3ZM4.4494 4.87379C4.37749 4.92975 4.33022 5.01158 4.31769 5.10184C4.32054 5.11916 4.33566 5.19411 4.41437 5.36492C4.52964 5.61508 4.71729 5.94215 5.01011 6.4497L9.10009 13.539V4.8H5.96291C5.37696 4.8 4.99988 4.80091 4.72559 4.82607C4.5383 4.84325 4.46583 4.86761 4.4494 4.87379ZM10.9001 4.8V13.539L14.9901 6.4497C15.2829 5.94215 15.4705 5.61508 15.5858 5.36492C15.6645 5.19411 15.6796 5.11916 15.6825 5.10184C15.67 5.01158 15.6227 4.92975 15.5508 4.87379C15.5344 4.86761 15.4619 4.84325 15.2746 4.82607C15.0003 4.80091 14.6232 4.8 14.0373 4.8H10.9001Z" fill="#0098EA"/>
</svg>
