<svg width="18" height="18" viewBox="11 11 18 18" fill="none" xmlns="http://www.w3.org/2000/svg" style="width: calc(1rem * var(--mantine-scale)); height: calc(1rem * var(--mantine-scale));"><path d="M27.212998254547706 24.0317033949863C27.212998254547706 24.673551699016084 26.78379954051603 25.236234462723306 26.164623527320657 25.405714211187767L14.14713452547287 28.695571098416007C13.459716666656847 28.88354863653588 12.781672687733773 28.366360436575754 12.781672687733773 27.653695594581396C12.781672687733773 27.157254915450988 13.119882274271253 26.724806589723094 13.601574715703425 26.605070897223868L23.893019966596803 24.04957625931552C23.93086544435125 24.040177382409528 23.957462266234174 24.006181444664442 23.957462266234174 23.96718610430979C23.957462266234174 23.92846573109866 23.931265396560022 23.894669769457963 23.893769876988237 23.88497092839539L13.865818140632305 21.294955415467957C13.227594403494463 21.130100114417353 12.781672687733773 20.554393906912196 12.781672687733773 19.895197675827202C12.781672687733773 19.235926453703065 13.227694391546652 18.660170252171817 13.866043113749734 18.495414939173397L23.90084403168078 15.905249444167678C23.938314554239515 15.895575600118157 23.96448642690062 15.861779638477458 23.96448642690062 15.823084262279378C23.96448642690062 15.784063924911674 23.937889605017702 15.750067987166593 23.900019130250204 15.740694107273647L13.604399378177835 13.19207364795346C13.121132124923646 13.072437943506424 12.781672687733773 12.638714770113086 12.781672687733773 12.140874258252C12.781672687733773 11.426184658200768 13.46179141873982 10.907471640444722 14.151034059508335 11.096499053112604L26.168373079277835 14.392105253341851C26.7852993612989 14.561285037649736 27.212998254547706 15.122043031352273 27.212998254547706 15.76174159225994C27.212998254547706 16.399940332384737 26.787299122342734 16.959748439591454 26.17237260136549 17.13030305961697L16.45720848927737 19.82460611098006C16.425512276732693 19.833380062559858 16.403589896289724 19.86222661561708 16.403589896289724 19.89512268478806C16.403589896289724 19.92799375694599 16.425512276732693 19.956840310003212 16.45720848927737 19.96563925859606L26.169122989669265 22.65906741450247C26.786049271690338 22.830121974788945 27.212998254547706 23.39160488186987 27.212998254547706 24.0317033949863Z" fill="#0098EA"></path></svg>