<svg width="24" height="24" viewBox="0 0 24 24" fill="none" xmlns="http://www.w3.org/2000/svg">
    <mask id="mask0_1339_27674" style="mask-type:alpha" maskUnits="userSpaceOnUse" x="3" y="4" width="19" height="16">
        <path d="M13.851 18.2393C13.1575 19.0568 12.8107 19.4655 12.3571 19.4655C11.9036 19.4655 11.5568 19.0568 10.8632 18.2393L4.14855 10.3256C3.69824 9.79487 3.47309 9.52951 3.45107 9.20826C3.42905 8.88701 3.61588 8.59341 3.98956 8.0062L5.05904 6.3256C5.27779 5.98185 5.38716 5.80997 5.54059 5.68089C5.69401 5.55182 5.88207 5.47346 6.25818 5.31675L8.57441 4.35165C8.99501 4.1764 9.20531 4.08877 9.42725 4.04439C9.64918 4 9.87701 4 10.3327 4H14.3816C14.8373 4 15.0651 4 15.287 4.04439C15.509 4.08877 15.7193 4.1764 16.1399 4.35165L18.4561 5.31675C18.8322 5.47346 19.0203 5.55182 19.1737 5.68089C19.3271 5.80997 19.4365 5.98185 19.6553 6.3256L20.7247 8.0062C21.0984 8.59341 21.2852 8.88701 21.2632 9.20826C21.2412 9.52951 21.016 9.79487 20.5657 10.3256L13.851 18.2393Z" fill="#C4C4C4"/>
    </mask>
    <g mask="url(#mask0_1339_27674)">
        <path d="M12.3554 11.8467L15.6229 11.8359L12.3554 21.7287V11.8467Z" fill="#8DCCFC"/>
        <path d="M12.3554 11.8467L9.09228 11.8359L12.3554 21.7287V11.8467Z" fill="#8DCCFC"/>
        <path d="M15.6229 11.8367L12.3576 7.5918L12.3554 11.8475L15.6229 11.8367Z" fill="#75C1FF"/>
        <path d="M9.09183 11.8367L12.3571 7.5918L12.355 11.8474L9.09183 11.8367Z" fill="#75C1FF"/>
        <path d="M15.6224 11.8378L18.2347 6.61328L12.3571 7.59287L15.6224 11.8378Z" fill="#4BAEF7"/>
        <path d="M9.09183 11.8378L6.47959 6.61328L12.3571 7.59287L9.09183 11.8378Z" fill="#BFE2F7"/>
        <path d="M21.5 9.22553L18.2347 6.61328L15.6224 11.8378L21.5 9.22553Z" fill="#6EBEFF"/>
        <path d="M3.21428 9.22553L6.47959 6.61328L9.09184 11.8378L3.21428 9.22553Z" fill="#87CBFF"/>
        <path d="M15.6224 11.8369L12.3571 21.6328L21.5 9.22461L15.6224 11.8369Z" fill="#47A9F1"/>
        <path d="M9.09183 11.8369L12.3571 21.6328L3.21428 9.22461L9.09183 11.8369Z" fill="#47A9F1"/>
        <path d="M19.2143 5.63281L18.2347 6.6124L21.5 9.22465L19.2143 5.63281Z" fill="#389BE3"/>
        <path d="M5.5 5.63281L6.47959 6.6124L3.21428 9.22465L5.5 5.63281Z" fill="#389BE3"/>
        <path d="M15.2964 4H12.3554V7.59184L18.2351 6.61225L19.2147 5.63265L15.2964 4Z" fill="#7EC7FF"/>
        <path d="M9.41882 4H12.3554V7.59184L6.48004 6.61225L5.50045 5.63265L9.41882 4Z" fill="#7EC7FF"/>
    </g>
</svg>
