<svg width="91" height="91" viewBox="0 0 91 91" fill="none" xmlns="http://www.w3.org/2000/svg">
<g clip-path="url(#clip0_818_2747)">
<path d="M90.6227 45.4401C90.6227 20.3916 70.3169 0.0858154 45.2684 0.0858154C20.2199 0.0858154 -0.0859375 20.3916 -0.0859375 45.4401C-0.0859375 70.4886 20.2199 90.7945 45.2684 90.7945C70.3169 90.7945 90.6227 70.4886 90.6227 45.4401Z" fill="#FAD20A"/>
<path d="M32.7659 59.6667C34.2248 59.6667 35.5507 59.3288 36.7442 58.6519C37.9378 57.9757 38.8725 57.0146 39.5487 55.7681C40.2256 54.5216 40.5635 53.1024 40.5635 51.5116C40.5635 49.92 40.2256 48.5008 39.5487 47.2547C38.8725 46.0079 37.9378 45.0467 36.7442 44.3702C35.5507 43.6944 34.2248 43.3561 32.7659 43.3561C31.2809 43.3561 29.9479 43.6944 28.7676 44.3702C27.588 45.0467 26.6593 46.0079 25.9836 47.2547C25.3066 48.5008 24.9688 49.92 24.9688 51.5116C24.9688 53.1024 25.3066 54.5216 25.9836 55.7681C26.6593 57.0146 27.588 57.9757 28.7676 58.6519C29.9479 59.3288 31.2809 59.6667 32.7659 59.6667ZM57.7093 59.6667C59.1682 59.6667 60.4876 59.3288 61.668 58.6519C62.8483 57.9757 63.7762 57.0146 64.4523 55.7681C65.1289 54.5216 65.4671 53.1024 65.4671 51.5116C65.4671 49.92 65.1289 48.5008 64.4523 47.2547C63.7762 46.0079 62.8483 45.0467 61.668 44.3702C60.4876 43.6944 59.1682 43.3561 57.7093 43.3561C56.2247 43.3561 54.8916 43.6944 53.7109 44.3702C52.5313 45.0467 51.6027 46.0079 50.9265 47.2547C50.25 48.5008 49.9125 49.92 49.9125 51.5116C49.9125 53.1024 50.25 54.5216 50.9265 55.7681C51.6027 57.0146 52.5313 57.9757 53.7109 58.6519C54.8916 59.3288 56.2247 59.6667 57.7093 59.6667Z" fill="#FEFEFE"/>
<path fill-rule="evenodd" clip-rule="evenodd" d="M44.9978 45.9818H45.0125C45.2813 35.7521 55.0891 27.2399 68.1735 25.0473C67.9384 20.7289 67.2059 17.5302 66.1439 15.1095C64.8331 12.1225 63.0209 10.3159 61.0192 9.05088L60.7354 8.87097L60.8174 9.19714C61.1764 10.6182 61.4516 12.1217 61.658 13.4933C62.0537 16.1258 62.1981 18.271 62.2094 18.4494C62.2313 18.7934 62.13 19.1218 61.941 19.3852C61.7521 19.6494 61.4728 19.8501 61.1402 19.9389C60.8076 20.0274 60.4651 19.9922 60.1692 19.8581C59.874 19.7231 59.6227 19.4892 59.4711 19.18C56.7098 13.5685 51.2684 12.7718 47.6684 12.245L47.6571 12.2434C47.4193 12.2087 47.1136 12.1743 46.7609 12.1399L45.5742 12.0295C44.7979 11.9611 43.9252 11.8833 43.0211 11.7857C42.1027 11.6863 41.1325 11.5635 40.1562 11.4059L39.3349 11.2732L40.3267 11.7888C41.1434 12.2155 41.9757 12.6509 42.7176 13.166C43.4493 13.6744 44.0915 14.2606 44.539 14.9946C44.7109 15.2761 44.7763 15.5989 44.7415 15.9096C44.7064 16.2199 44.5703 16.52 44.3405 16.7562C44.1096 16.992 43.8129 17.1357 43.5026 17.1784C43.1935 17.2211 42.8695 17.1633 42.5834 16.9981L42.2452 16.7966L41.9148 16.5914C40.5629 15.7508 39.3939 15.0233 34.5931 15.3328C32.4169 15.4734 30.4682 15.1903 28.7201 14.6737C26.971 14.157 25.421 13.4049 24.0433 12.6097L23.772 12.4532L23.8461 12.7578C24.3729 14.9262 25.1451 17.3039 25.9403 19.5085C27.1244 22.7913 28.3588 25.6925 28.9118 26.9587C38.3103 30.5466 44.7809 37.7008 44.9978 45.9818Z" fill="#FAF0AA"/>
<path d="M53.687 79.0159L53.4818 78.8833C50.5806 76.9977 48.291 75.5112 45.4503 75.4451L45.2602 75.4443L45.2307 75.4451C42.3896 75.5112 40.1049 76.9958 37.2105 78.8746L36.9943 79.0148C36.5446 79.3074 36.0396 79.5557 35.4931 79.7564C34.061 80.2881 32.4525 80.4851 30.9308 80.4851C28.3948 80.4851 26.1002 79.9385 25.271 79.4861C24.3265 78.9721 23.7667 78.2362 24.1027 76.3162C24.1315 76.153 24.212 75.9341 24.3397 75.6677C24.3684 75.6182 24.3922 75.572 24.4142 75.5252L24.4478 75.4519C24.9921 74.4098 26.059 72.9147 26.8331 71.9751C26.8376 71.9671 26.8418 71.9615 26.8463 71.9569L26.8943 71.9044L26.9468 71.952C27.4004 72.356 27.7738 72.8557 28.0565 73.4374L28.1049 73.5368C28.2682 73.8716 28.6745 74.0119 29.0097 73.849L29.2096 73.7518C29.5449 73.5889 29.6851 73.1822 29.5218 72.847L29.4731 72.7468C28.5667 70.8858 26.9926 69.6949 24.7944 69.2058L24.6852 69.1816C24.3212 69.1004 23.9584 69.3313 23.8775 69.6953L23.8291 69.9126C23.7482 70.2762 23.9788 70.639 24.3424 70.7203L24.3877 70.7301L24.3121 70.8189C23.8801 71.3341 23.419 71.9652 23.0139 72.5968L22.9432 72.7068L22.8895 72.5881C22.628 72.0038 22.0569 70.4799 22.4333 68.939C22.6699 68.2152 23.2153 67.6872 24.0551 67.3633C25.1935 66.9245 26.381 67.07 26.728 67.2745C27.4862 67.7235 28.9069 68.3002 30.6175 68.5731C33.036 68.9594 36.6935 68.8551 40.3608 66.1584C41.9175 65.0124 43.556 64.4285 45.2295 64.424H45.4476C47.1238 64.4285 48.763 65.0124 50.3198 66.1584C53.9878 68.8551 57.6426 68.9594 60.0623 68.5731C61.7733 68.301 63.1925 67.7242 63.9511 67.2752C64.2976 67.0708 65.4889 66.9245 66.6254 67.3633C67.4653 67.6872 68.0099 68.2152 68.2469 68.9325C68.6203 70.4753 68.0137 71.9176 67.7355 72.466L67.6792 72.576L67.6123 72.4728C67.1546 71.76 66.7211 71.2135 66.4384 70.879L66.3382 70.7626H66.4119C66.5627 70.7626 66.6923 70.7082 66.7978 70.6008C66.9036 70.4935 66.9558 70.3627 66.9531 70.2123L66.9475 69.8634C66.9418 69.4908 66.6432 69.1865 66.2705 69.1865H66.1594C64.5955 69.1865 62.3825 70.1314 61.2888 72.7926L61.2464 72.8958C61.1051 73.2405 61.2706 73.6369 61.6153 73.7787L61.8209 73.8629C62.1656 74.0047 62.5621 73.8391 62.7042 73.4944L62.7465 73.3913C62.9873 72.8051 63.3051 72.3035 63.6914 71.9006L63.7496 71.8401L63.7991 71.9082C63.8078 71.9187 63.8146 71.9308 63.8222 71.9414C63.829 71.9531 63.8365 71.9645 63.846 71.9751C64.5478 72.8289 65.571 74.2348 66.1568 75.3075L66.1662 75.3298C66.19 75.3819 66.2199 75.4364 66.2513 75.4862C66.4338 75.8396 66.5427 76.1178 66.5778 76.3174C66.9131 78.2362 66.3533 78.9729 65.4088 79.4869C64.0811 80.2099 59.001 81.1737 55.1818 79.7552C54.6387 79.5557 54.1352 79.3073 53.687 79.0159ZM51.0859 80.9685C49.316 81.7765 47.331 82.2025 45.3395 82.2025C43.3488 82.2025 41.3638 81.7765 39.5996 80.9703L39.2171 80.7303L39.3108 80.6702C41.5985 79.1936 43.3659 78.1436 45.2757 78.0941H45.4015C47.3166 78.1436 49.0915 79.1993 51.3917 80.6846L51.4918 80.7496L51.0859 80.9685Z" fill="#FAAA28"/>
<path d="M32.7659 59.6667C34.2248 59.6667 35.5507 59.3288 36.7442 58.6519C37.9378 57.9757 38.8725 57.0146 39.5487 55.7681C40.2256 54.5216 40.5635 53.1024 40.5635 51.5116C40.5635 49.92 40.2256 48.5008 39.5487 47.2547C38.8725 46.0079 37.9378 45.0467 36.7442 44.3702C35.5507 43.6944 34.2248 43.3561 32.7659 43.3561C31.2809 43.3561 29.9479 43.6944 28.7676 44.3702C27.588 45.0467 26.6593 46.0079 25.9836 47.2547C25.3066 48.5008 24.9688 49.92 24.9688 51.5116C24.9688 53.1024 25.3066 54.5216 25.9836 55.7681C26.6593 57.0146 27.588 57.9757 28.7676 58.6519C29.9479 59.3288 31.2809 59.6667 32.7659 59.6667ZM57.7093 59.6667C59.1682 59.6667 60.4876 59.3288 61.668 58.6519C62.8483 57.9757 63.7762 57.0146 64.4523 55.7681C65.1289 54.5216 65.4671 53.1024 65.4671 51.5116C65.4671 49.92 65.1289 48.5008 64.4523 47.2547C63.7762 46.0079 62.8483 45.0467 61.668 44.3702C60.4876 43.6944 59.1682 43.3561 57.7093 43.3561C56.2247 43.3561 54.8916 43.6944 53.7109 44.3702C52.5313 45.0467 51.6027 46.0079 50.9265 47.2547C50.25 48.5008 49.9125 49.92 49.9125 51.5116C49.9125 53.1024 50.25 54.5216 50.9265 55.7681C51.6027 57.0146 52.5313 57.9757 53.7109 58.6519C54.8916 59.3288 56.2247 59.6667 57.7093 59.6667Z" fill="#FEFEFE"/>
<path fill-rule="evenodd" clip-rule="evenodd" d="M57.7482 49.132C59.2437 49.132 60.4558 50.3444 60.4558 51.84C60.4558 53.3352 59.2437 54.5476 57.7482 54.5476C56.2526 54.5476 55.0405 53.3352 55.0405 51.84C55.0405 50.3444 56.2526 49.132 57.7482 49.132ZM33.0607 48.9158C34.5562 48.9158 35.7683 50.1279 35.7683 51.6234C35.7683 53.119 34.5562 54.3311 33.0607 54.3311C31.5655 54.3311 30.353 53.119 30.353 51.6234C30.353 50.1279 31.5655 48.9158 33.0607 48.9158Z" fill="#0088CC"/>
<path d="M68.2515 33.809V60.7555C68.2515 61.4264 67.7042 61.9741 67.033 61.9741H66.9003C66.1546 61.9741 65.5465 61.3663 65.5465 60.6206V57.837C64.6976 59.2422 63.577 60.3164 62.1842 61.059C60.7922 61.8017 59.2207 62.1729 57.4704 62.1729C55.5081 62.1729 53.7309 61.7223 52.1398 60.8205C50.5478 59.9187 49.3017 58.6587 48.3999 57.0406C47.4981 55.4234 47.0476 53.5797 47.0476 51.5116C47.0476 49.4427 47.4981 47.5994 48.3999 45.9817C49.3017 44.3637 50.5478 43.1108 52.1398 42.2222C53.7309 41.3337 55.5081 40.8892 57.4704 40.8892C59.1678 40.8892 60.6996 41.2407 62.0652 41.9437C63.4307 42.6467 64.5513 43.6743 65.4271 45.027V33.809C65.4271 33.0633 66.0348 32.4556 66.7805 32.4556H66.8973C67.643 32.4556 68.2515 33.0633 68.2515 33.809ZM57.7089 59.6667C59.1678 59.6667 60.4872 59.3288 61.6676 58.6518C62.8479 57.9757 63.7758 57.0146 64.4519 55.7681C65.1285 54.5216 65.4667 53.1024 65.4667 51.5116C65.4667 49.92 65.1285 48.5008 64.4519 47.2547C63.7758 46.0078 62.8479 45.0467 61.6676 44.3701C60.4872 43.6944 59.1678 43.3561 57.7089 43.3561C56.2243 43.3561 54.8912 43.6944 53.7105 44.3701C52.5309 45.0467 51.6023 46.0078 50.9261 47.2547C50.2496 48.5008 49.9121 49.92 49.9121 51.5116C49.9121 53.1024 50.2496 54.5216 50.9261 55.7681C51.6023 57.0146 52.5309 57.9757 53.7105 58.6518C54.8912 59.3288 56.2243 59.6667 57.7089 59.6667ZM32.9647 40.8892C34.9274 40.8892 36.7038 41.3337 38.2953 42.2222C39.8869 43.1108 41.1334 44.3637 42.0348 45.9817C42.9366 47.5994 43.3875 49.4427 43.3875 51.5116C43.3875 53.5797 42.9366 55.4234 42.0348 57.0406C41.1334 58.6587 39.8869 59.9187 38.2953 60.8205C36.7038 61.7223 34.9274 62.1729 32.9647 62.1729C31.214 62.1729 29.6429 61.8017 28.2505 61.059C26.8577 60.3164 25.7375 59.2422 24.8886 57.837V60.6206C24.8886 61.3663 24.2805 61.9741 23.5344 61.9741H23.4021C22.7309 61.9741 22.1836 61.4264 22.1836 60.7555V33.809C22.1836 33.0633 22.7917 32.4556 23.5374 32.4556H23.6542C24.3999 32.4556 25.008 33.0633 25.008 33.809V45.027C25.8834 43.6743 27.004 42.6467 28.3699 41.9437C29.7358 41.2407 31.2669 40.8892 32.9647 40.8892ZM32.7655 59.6667C34.2244 59.6667 35.5503 59.3288 36.7438 58.6518C37.9374 57.9757 38.8721 57.0146 39.5483 55.7681C40.2252 54.5216 40.5631 53.1024 40.5631 51.5116C40.5631 49.92 40.2252 48.5008 39.5483 47.2547C38.8721 46.0078 37.9374 45.0467 36.7438 44.3701C35.5503 43.6944 34.2244 43.3561 32.7655 43.3561C31.2805 43.3561 29.9475 43.6944 28.7672 44.3701C27.5876 45.0467 26.6589 46.0078 25.9832 47.2547C25.3062 48.5008 24.9683 49.92 24.9683 51.5116C24.9683 53.1024 25.3062 54.5216 25.9832 55.7681C26.6589 57.0146 27.5876 57.9757 28.7672 58.6518C29.9475 59.3288 31.2805 59.6667 32.7655 59.6667Z" fill="#3C3C3C"/>
<path d="M66.676 81.814C68.8284 80.6415 69.6735 78.6384 69.1863 75.8608C69.1549 75.6783 69.1005 75.4738 69.0238 75.2542L69.0098 75.2141L69.04 75.1824C70.4234 73.7352 71.4752 70.8896 70.8066 68.2485C70.8009 68.2258 70.7941 68.2039 70.7866 68.182C70.3175 66.6762 69.1776 65.5072 67.5777 64.89C65.8679 64.232 63.822 64.2747 62.602 64.9951C62.4863 65.065 61.4156 65.6754 59.6445 65.957C57.7257 66.2646 54.8188 66.1784 51.8901 64.0245C49.871 62.5384 47.7035 61.7817 45.4513 61.7749H45.2256C42.9753 61.7817 40.8108 62.5384 38.7914 64.0245C35.8626 66.1777 32.9558 66.2646 31.0346 65.957C29.2696 65.6761 28.1928 65.0631 28.0753 64.9943C26.8586 64.2739 24.8135 64.232 23.1025 64.89C21.5027 65.5072 20.3631 66.6762 19.8941 68.1797C19.8873 68.2027 19.8809 68.2247 19.8748 68.2485C19.2157 70.8427 20.2218 73.917 21.5741 75.3907L21.6009 75.4205L21.5903 75.4587C21.5465 75.6046 21.5151 75.7365 21.494 75.8597C21.0068 78.6384 21.8511 80.6408 24.0036 81.8128C25.1752 82.4516 27.8364 83.1406 30.9095 83.1406C32.9482 83.1406 34.7926 82.8397 36.3948 82.2475L36.428 82.235L36.4575 82.2539C39.0109 83.9297 42.165 84.8512 45.3394 84.8512C48.5142 84.8512 51.6686 83.9297 54.2228 82.255L54.2526 82.2358L54.2859 82.2475C58.8871 83.9479 64.7102 82.8843 66.676 81.814Z" fill="#3C3C3C"/>
<path d="M27.617 29.647C27.7073 29.6648 27.8003 29.6734 27.8941 29.6734C28.0887 29.6734 28.2826 29.6338 28.4614 29.5582C28.6364 29.4833 28.7993 29.3726 28.9364 29.2294C29.1405 29.0173 29.2702 28.7524 29.3178 28.4738C29.3654 28.1953 29.331 27.9016 29.2097 27.6321C29.1704 27.5456 27.5104 23.8624 25.9404 19.5084C25.1452 17.3038 24.373 14.9261 23.8462 12.7578L23.7721 12.4532L24.0435 12.6096C25.4211 13.4048 26.9711 14.157 28.7203 14.6736C30.4683 15.1903 32.417 15.4734 34.5933 15.3328C39.394 15.0232 40.563 15.7508 41.915 16.5914L42.2453 16.7966L42.5836 16.998C42.8697 17.1632 43.1936 17.221 43.5027 17.1783C43.813 17.1356 44.1097 16.992 44.3407 16.7562C44.5705 16.5199 44.7065 16.2198 44.7417 15.9095C44.7765 15.5989 44.7111 15.2761 44.5391 14.9945C44.0916 14.2605 43.4495 13.6743 42.7177 13.166C41.9758 12.6508 41.1436 12.2154 40.3268 11.7887L39.3351 11.2732L40.1564 11.4059C41.1326 11.5635 42.1028 11.6863 43.0212 11.7857C43.9253 11.8832 44.798 11.9611 45.5743 12.0295L46.7611 12.1398C47.1137 12.1742 47.4195 12.2086 47.6572 12.2434L47.6685 12.2449C51.2685 12.7718 56.7099 13.5685 59.4713 19.18C59.6228 19.4891 59.8741 19.7231 60.1693 19.858C60.4653 19.9922 60.8077 20.0273 61.1403 19.9389C61.4729 19.8501 61.7522 19.6494 61.9412 19.3852C62.1302 19.1218 62.2314 18.7933 62.2095 18.4494C62.1982 18.271 62.0538 16.1257 61.6581 13.4933C61.4517 12.1217 61.1766 10.6182 60.8175 9.1971L60.7355 8.87093L61.0193 9.05083C63.021 10.3158 64.8333 12.1225 66.144 15.1094C67.4487 18.0824 68.2556 22.2289 68.2553 28.182V28.2735C68.2556 29.0188 68.8638 29.6266 69.6091 29.6266H69.7909C70.5366 29.6266 71.1447 29.0185 71.1447 28.2728V28.182C71.1447 24.4044 70.8287 21.1245 70.1881 18.3035C69.5486 15.4885 68.5848 13.1282 67.2892 11.1844C66.0813 9.37209 64.6598 8.04283 63.182 7.01934C61.7015 5.99433 60.1603 5.27395 58.7176 4.68359C58.4368 4.56869 58.1344 4.54828 57.8517 4.61178C57.569 4.67527 57.3056 4.82494 57.1015 5.04945C56.8978 5.27395 56.7738 5.55137 56.7375 5.83824C56.7009 6.12548 56.7507 6.42444 56.8921 6.69354C57.2599 7.39502 57.5826 8.30476 57.8612 9.31464C58.1911 10.5109 58.461 11.8496 58.676 13.1512L58.7346 13.5054L58.458 13.2756C54.9959 10.3994 50.7315 9.77386 48.0919 9.38646L48.0892 9.38608C47.8012 9.34413 47.4641 9.30557 47.088 9.26853L45.8313 9.15364C44.3471 9.02098 42.4834 8.8543 40.6239 8.55458C38.7572 8.25298 36.8912 7.81493 35.4112 7.14066C35.1632 7.02803 34.8937 6.98986 34.633 7.02198C34.3725 7.05449 34.1193 7.15842 33.9073 7.3285C33.6949 7.49972 33.5388 7.72346 33.4515 7.97064C33.3638 8.21858 33.3426 8.49109 33.3997 8.75792C33.555 9.48586 33.8332 10.1204 34.1949 10.6802C34.5577 11.2414 35.0075 11.7298 35.5045 12.1618L35.7611 12.3851L34.9259 12.4195L34.4073 12.4505C29.3805 12.7737 25.7303 10.3525 22.797 8.40567L22.5853 8.26431C22.3533 8.11049 22.0864 8.02998 21.8196 8.02431C21.5516 8.01864 21.281 8.08781 21.0422 8.23105C20.8033 8.3743 20.6162 8.58028 20.4964 8.81839C20.3758 9.05802 20.3221 9.33203 20.3494 9.60907C20.5474 11.6379 21.1502 14.0957 21.9069 16.566C22.6636 19.0375 23.5763 21.524 24.3935 23.6066L24.6542 24.2706L24.1697 23.7464C23.7596 23.3023 23.356 22.8053 22.9795 22.2546C22.6416 21.7595 22.3245 21.219 22.0437 20.6324C21.8986 20.3286 21.6567 20.0946 21.3698 19.9559C21.0822 19.8168 20.7485 19.773 20.4204 19.8474C20.0916 19.9215 19.8108 20.1052 19.612 20.3543C19.4132 20.6037 19.2964 20.9189 19.2964 21.2568V28.2728C19.2964 29.0185 19.9045 29.6266 20.6502 29.6266H20.8309C21.5766 29.6266 22.1847 29.0185 22.1847 28.2728V25.8656L22.4153 26.0991C23.5964 27.2988 24.7956 28.1526 25.717 28.7127C26.6351 29.2706 27.2742 29.537 27.3506 29.5684C27.4375 29.6031 27.5274 29.6296 27.617 29.647Z" fill="#3C3C3C"/>
<path fill-rule="evenodd" clip-rule="evenodd" d="M44.9978 45.9818H45.0125C45.2813 35.7521 55.0891 27.2399 68.1735 25.0473C67.9384 20.7289 67.2059 17.5302 66.1439 15.1095C64.8331 12.1225 63.0209 10.3159 61.0192 9.05088L60.7354 8.87097L60.8174 9.19714C61.1764 10.6182 61.4516 12.1217 61.658 13.4933C62.0537 16.1258 62.1981 18.271 62.2094 18.4494C62.2313 18.7934 62.13 19.1218 61.941 19.3852C61.7521 19.6494 61.4728 19.8501 61.1402 19.9389C60.8076 20.0274 60.4651 19.9922 60.1692 19.8581C59.874 19.7231 59.6227 19.4892 59.4711 19.18C56.7098 13.5685 51.2684 12.7718 47.6684 12.245L47.6571 12.2434C47.4193 12.2087 47.1136 12.1743 46.7609 12.1399L45.5742 12.0295C44.7979 11.9611 43.9252 11.8833 43.0211 11.7857C42.1027 11.6863 41.1325 11.5635 40.1562 11.4059L39.3349 11.2732L40.3267 11.7888C41.1434 12.2155 41.9757 12.6509 42.7176 13.166C43.4493 13.6744 44.0915 14.2606 44.539 14.9946C44.7109 15.2761 44.7763 15.5989 44.7415 15.9096C44.7064 16.2199 44.5703 16.52 44.3405 16.7562C44.1096 16.992 43.8129 17.1357 43.5026 17.1784C43.1935 17.2211 42.8695 17.1633 42.5834 16.9981L42.2452 16.7966L41.9148 16.5914C40.5629 15.7508 39.3939 15.0233 34.5931 15.3328C32.4169 15.4734 30.4682 15.1903 28.7201 14.6737C26.971 14.157 25.421 13.4049 24.0433 12.6097L23.772 12.4532L23.8461 12.7578C24.3729 14.9262 25.1451 17.3039 25.9403 19.5085C27.1244 22.7913 28.3588 25.6925 28.9118 26.9587C38.3103 30.5466 44.7809 37.7008 44.9978 45.9818Z" fill="#FAF0AA"/>
<path d="M53.687 79.0159L53.4818 78.8833C50.5806 76.9977 48.291 75.5112 45.4503 75.4451L45.2602 75.4443L45.2307 75.4451C42.3896 75.5112 40.1049 76.9958 37.2105 78.8746L36.9943 79.0148C36.5446 79.3074 36.0396 79.5557 35.4931 79.7564C34.061 80.2881 32.4525 80.4851 30.9308 80.4851C28.3948 80.4851 26.1002 79.9385 25.271 79.4861C24.3265 78.9721 23.7667 78.2362 24.1027 76.3162C24.1315 76.153 24.212 75.9341 24.3397 75.6677C24.3684 75.6182 24.3922 75.572 24.4142 75.5252L24.4478 75.4519C24.9921 74.4098 26.059 72.9147 26.8331 71.9751C26.8376 71.9671 26.8418 71.9615 26.8463 71.9569L26.8943 71.9044L26.9468 71.952C27.4004 72.356 27.7738 72.8557 28.0565 73.4374L28.1049 73.5368C28.2682 73.8716 28.6745 74.0119 29.0097 73.849L29.2096 73.7518C29.5449 73.5889 29.6851 73.1822 29.5218 72.847L29.4731 72.7468C28.5667 70.8858 26.9926 69.6949 24.7944 69.2058L24.6852 69.1816C24.3212 69.1004 23.9584 69.3313 23.8775 69.6953L23.8291 69.9126C23.7482 70.2762 23.9788 70.639 24.3424 70.7203L24.3877 70.7301L24.3121 70.8189C23.8801 71.3341 23.419 71.9652 23.0139 72.5968L22.9432 72.7068L22.8895 72.5881C22.628 72.0038 22.0569 70.4799 22.4333 68.939C22.6699 68.2152 23.2153 67.6872 24.0551 67.3633C25.1935 66.9245 26.381 67.07 26.728 67.2745C27.4862 67.7235 28.9069 68.3002 30.6175 68.5731C33.036 68.9594 36.6935 68.8551 40.3608 66.1584C41.9175 65.0124 43.556 64.4285 45.2295 64.424H45.4476C47.1238 64.4285 48.763 65.0124 50.3198 66.1584C53.9878 68.8551 57.6426 68.9594 60.0623 68.5731C61.7733 68.301 63.1925 67.7242 63.9511 67.2752C64.2976 67.0708 65.4889 66.9245 66.6254 67.3633C67.4653 67.6872 68.0099 68.2152 68.2469 68.9325C68.6203 70.4753 68.0137 71.9176 67.7355 72.466L67.6792 72.576L67.6123 72.4728C67.1546 71.76 66.7211 71.2135 66.4384 70.879L66.3382 70.7626H66.4119C66.5627 70.7626 66.6923 70.7082 66.7978 70.6008C66.9036 70.4935 66.9558 70.3627 66.9531 70.2123L66.9475 69.8634C66.9418 69.4908 66.6432 69.1865 66.2705 69.1865H66.1594C64.5955 69.1865 62.3825 70.1314 61.2888 72.7926L61.2464 72.8958C61.1051 73.2405 61.2706 73.6369 61.6153 73.7787L61.8209 73.8629C62.1656 74.0047 62.5621 73.8391 62.7042 73.4944L62.7465 73.3913C62.9873 72.8051 63.3051 72.3035 63.6914 71.9006L63.7496 71.8401L63.7991 71.9082C63.8078 71.9187 63.8146 71.9308 63.8222 71.9414C63.829 71.9531 63.8365 71.9645 63.846 71.9751C64.5478 72.8289 65.571 74.2348 66.1568 75.3075L66.1662 75.3298C66.19 75.3819 66.2199 75.4364 66.2513 75.4862C66.4338 75.8396 66.5427 76.1178 66.5778 76.3174C66.9131 78.2362 66.3533 78.9729 65.4088 79.4869C64.0811 80.2099 59.001 81.1737 55.1818 79.7552C54.6387 79.5557 54.1352 79.3073 53.687 79.0159ZM51.0859 80.9685C49.316 81.7765 47.331 82.2025 45.3395 82.2025C43.3488 82.2025 41.3638 81.7765 39.5996 80.9703L39.2171 80.7303L39.3108 80.6702C41.5985 79.1936 43.3659 78.1436 45.2757 78.0941H45.4015C47.3166 78.1436 49.0915 79.1993 51.3917 80.6846L51.4918 80.7496L51.0859 80.9685Z" fill="#FAAA28"/>
</g>
<defs>
<clipPath id="clip0_818_2747">
<rect width="90.7087" height="90.7087" fill="white"/>
</clipPath>
</defs>
</svg>